<?xml version="1.0" encoding="UTF-8"?>
<svg id="kljb-logo" xmlns="http://www.w3.org/2000/svg" version="1.1" viewBox="0 0 1001 411.4">
  <!-- Generator: Adobe Illustrator 29.1.0, SVG Export Plug-In . SVG Version: 2.1.0 Build 142)  -->
  <defs>
    <style>
      .st0 {
        fill: #00847e;
      }

      .st1 {
        fill: #fff;
      }
    </style>
  </defs>
  <path class="st0" d="M973.4,136.5c15.1-8.9,22.7-22,22.7-39.4s-2.1-18.3-6.3-26.5c-4.2-8.2-10.3-14.2-18.2-17.9-8.6-4-22.7-6-42-6h-66.9c0-.1-.4,188.2-.4,188.2h64.6c10.4.1,19-.2,25.9-.9,6.9-.7,13.4-2.4,19.6-5.1,8.7-4,15.7-10.6,20.8-19.6,5.1-9.1,7.7-18.5,7.8-28.3,0-20.8-9.2-35.6-27.6-44.5ZM916.5,84h3.7c8.2,0,14.1,1.2,17.6,3.6,3.5,2.4,5.2,7.5,5.2,15.4s-1.9,12.6-5.5,15.6c-3.7,3-9.3,4.4-16.9,4.4l-4.2-.3v-38.7ZM938.5,194.1c-3.2,2.6-9,3.9-17.5,3.9h-4.7v-41.2h6c6.6,0,11.3.7,14.1,2.1,6,3.2,9,9.5,9,18.6,0,7.3-2.3,12.9-6.9,16.6Z"/>
  <path class="st0" d="M782.2,210.7c0,7.9-.4,14.3-1.1,19.2-.8,5-2.8,9.2-6.1,12.7-3.3,3.5-8.5,5.3-15.4,5.3s-2.9,0-3.7-.3l14,47.7c.6,0,1.5,0,2.6,0,1.2.1,2,.1,2.5.1,11.6,0,22.4-2.4,32.4-7.5,10-5,17.5-12.3,22.5-22.1,2.8-6,4.6-12.2,5.3-18.7.7-6.4,1-14.6,1-24.5l.3-176.4h-53.9c0,0-.4,164.4-.4,164.4Z"/>
  <polygon class="st0" points="756.3 193.7 694.5 193.6 694.8 46.3 640.8 46.2 640.5 234.4 756.2 234.6 756.3 193.7"/>
  <polygon class="st0" points="565.2 46 526.1 122.7 526.3 46 472.4 45.8 472 234.1 525.9 234.2 526.1 141.7 564.8 234.3 625.6 234.4 577.7 129.8 625.9 46.1 565.2 46"/>
  <path class="st0" d="M210.8,319.4c0,2.3-.7,4.1-2.1,5.2-1,.8-2.8,1.2-5.5,1.2h-1.5v-12.9h1.9c2.1,0,3.5.2,4.4.6,1.9,1.1,2.8,3,2.8,5.9ZM208.3,300.9c1.2-.9,1.7-2.6,1.7-4.9s-.5-4.1-1.6-4.8c-1.1-.7-2.9-1.1-5.5-1.1h-1.2v12.1h1.3c2.4,0,4.2-.3,5.3-1.3ZM406.7,235.8c-.2,1.1-.4,2.1-.5,3.2-5.9,35.5-21.1,69.9-46.1,99.1-21.2,24.8-47.2,43.1-75.4,55-.3.1-.7.3-1,.4-2.5,1-5,2-7.6,3-1.2.4-2.3.8-3.5,1.2-1.8.6-3.6,1.2-5.3,1.8-1.8.6-3.6,1.1-5.3,1.6-1.3.4-2.5.7-3.8,1.1-2.2.6-4.3,1.1-6.5,1.6-1,.2-1.9.5-2.9.7-2.3.5-4.6,1-6.9,1.4-.9.2-1.9.3-2.8.5-2.3.4-4.5.7-6.8,1-1.1.1-2.2.3-3.2.4-2.1.2-4.2.5-6.3.6-1.4.1-2.7.2-4.1.3-1.8,0-3.7.2-5.5.3-1.7,0-3.5,0-5.2,0h-4.7c-2,0-4,0-6-.2-1.3,0-2.7,0-4-.2-2.2-.1-4.4-.3-6.6-.5-1.1-.1-2.2-.2-3.4-.3-2.5-.3-4.9-.6-7.4-.9-.8-.1-1.6-.2-2.4-.3-2.9-.5-5.9-1-8.8-1.6-.3,0-.6,0-.9-.2-32.8-6.7-64.4-21.5-91.6-44.8-24.4-20.9-42.6-46.5-54.5-74.2-.3-.8-.7-1.6-1-2.4-.8-2-1.6-3.9-2.3-5.9-.6-1.5-1.1-3-1.7-4.5-.5-1.4-1-2.9-1.5-4.3-.7-2.1-1.3-4.2-1.9-6.3-.3-1-.6-2-.9-3.1-.7-2.5-1.3-5-1.9-7.6-.2-.8-.4-1.5-.5-2.3-.6-2.7-1.1-5.5-1.6-8.2,0-.7-.2-1.4-.4-2-.5-2.7-.8-5.4-1.2-8.1-.1-.8-.2-1.6-.3-2.4-.3-2.5-.5-5-.7-7.5-.1-1.1-.2-2.2-.3-3.4,0-2.1-.2-4.2-.3-6.4,0-1,0-2,0-2.9h0c40.3,30.2,168.3,45.4,282.7,15.7-5.3,45.1-25.2,103.9-64,132.6,107.8,9.5,143.8-50.6,170.7-119.5.2-.6,0-.9-.8-1h-67.6c-2-.2-2.4-2-2.4-2.6v-20.5c31.4-11.2,60.7-26.3,85.9-45.9h0c.1.5.2,1.1.3,1.6.5,2.7.9,5.4,1.3,8.2,0,1,.3,2,.4,2.9.3,2.5.6,5.1.8,7.6,0,1.2.2,2.4.3,3.7.2,2.3.3,4.5.3,6.8,0,1.5,0,3,0,4.5v6c0,1.7,0,3.4,0,5.2,0,1.8-.2,3.6-.3,5.4-.1,1.9-.2,3.7-.4,5.6-.2,1.6-.4,3.2-.5,4.7-.6,2.1-.9,4.2-1.2,6.2ZM120.6,337.2h36.2c0,0,0-12.7,0-12.7h-19.3v-46.1c.1,0-16.8,0-16.8,0v58.8ZM70.5,337.1h16.9v-29c0,0,12.2,29,12.2,29h19l-15-32.7,15.1-26.2h-19l-12.3,24v-24c0,0-16.8,0-16.8,0v58.9ZM177.3,347.2c.9-1.9,1.4-3.8,1.6-5.9.2-2,.3-4.6.3-7.7v-55.2c0,0-16.8,0-16.8,0v51.4c-.1,2.5-.2,4.5-.4,6-.2,1.6-.9,2.9-1.9,4s-2.7,1.7-4.8,1.7h-1.2c0-.1,4.4,14.8,4.4,14.8h.8c0,0,.8,0,.8,0,3.6,0,7-.8,10.1-2.3,3.1-1.6,5.5-3.9,7.1-6.9ZM213.1,337.1c2.1-.2,4.2-.7,6.1-1.6,2.7-1.3,4.9-3.3,6.5-6.1,1.6-2.8,2.4-5.8,2.4-8.9,0-6.5-2.9-11.1-8.6-13.9,4.7-2.8,7.1-6.9,7.1-12.3s-.7-5.7-2-8.3c-1.3-2.6-3.2-4.4-5.7-5.6-2.7-1.2-7.1-1.9-13.2-1.9h-20.9v58.9c0,0,20.1,0,20.1,0,3.4,0,6.1,0,8.2-.3Z"/>
  <path id="icon_x5F_upper_x5F_green" class="st0" d="M120.9,133.1c-15.3,0-30.7,0-46,0-2.1,0-3.9-1.8-3.9-4l.4-34.2c0-2.2,1.8-4,4-4,15.2,0,30.4,0,45.6,0v-34.4c.1-2.2,1.9-4,4.1-4h34.2c2.2,0,4,1.9,4,4.1v34.4c15.1,0,30.3,0,45.5,0s4,1.8,4,4l.2,34.2c0,2.2-1.7,4-3.9,4-15.3,0-30.7,0-46,0l-.2,87.8c49.2-3.2,89.5-16.3,122.3-32.5v-29.2c0-1.1,1-1.9,2-1.9h30.6c1.1.1,1.9,1,1.9,2v9.6c30.9-19.8,53.2-40.2,69.4-51.7h0c-11.9-25-29-47.9-51.3-67C305.2,22.1,266,6.3,226.1,2.3c-.2,0-.5,0-.7,0-3.1-.3-6.2-.5-9.3-.7-.5,0-1,0-1.5-.1-2.9,0-5.7-.2-8.6-.2h-2.3c-2.5,0-5.1,0-7.6.2-1.1,0-2.1.1-3.2.2-2.2.1-4.4.3-6.5.5-1.3.1-2.7.3-4,.4-1.9.2-3.8.5-5.7.7-1.5.2-3,.4-4.5.7-1.8.3-3.6.6-5.4,1-1.5.3-3,.6-4.4.9-1.9.4-3.7.8-5.6,1.3-1.3.3-2.6.6-3.9,1-2.2.6-4.4,1.2-6.6,1.9-.9.3-1.7.5-2.6.8-2.8.9-5.5,1.8-8.3,2.8-.2.1-.4.1-.6.2-31.9,11.4-61.3,31-84.8,58.5C22,104.9,6.2,144,2.1,183.9c-.1.5-.1,1.1-.1,1.6-.2,2.6-.5,5.3-.6,7.9-.1.9-.1,1.8-.1,2.7s0,2,0,3.1h0c44.3,13.7,84,20.4,119.6,22.1v-88.2Z"/>
  <path id="b_x5F_white" class="st1" d="M225.8,329.4c1.6-2.8,2.4-5.8,2.4-8.9,0-6.5-2.9-11.1-8.6-13.9,4.7-2.8,7.1-6.9,7.1-12.3s-.7-5.7-2-8.3c-1.3-2.6-3.2-4.4-5.7-5.6-2.7-1.2-7.1-1.9-13.2-1.9h-20.9v58.9c-.1,0,20.1,0,20.1,0,3.2,0,5.9,0,8.1-.3,2.1-.2,4.2-.7,6.1-1.6,2.8-1.3,5-3.3,6.6-6.1ZM201.8,290.1h1.2c2.6,0,4.4.4,5.5,1.1,1.1.7,1.6,2.3,1.6,4.8s-.6,3.9-1.7,4.9c-1.2.9-2.9,1.4-5.3,1.4h-1.3v-12.2ZM208.7,324.6c-1,.8-2.8,1.2-5.5,1.2h-1.5v-12.9h1.9c2.1,0,3.5.2,4.4.6,1.9,1,2.8,3,2.8,5.8s-.7,4.1-2.1,5.3Z"/>
  <path id="j_x5F_white" class="st1" d="M178.9,341.3c.2-2,.3-4.6.3-7.7v-55.2c0,0-16.8,0-16.8,0v51.4c-.1,2.5-.2,4.5-.4,6-.2,1.6-.9,2.9-1.9,4-1,1.1-2.7,1.7-4.8,1.7h-1.2c0-.1,4.4,14.8,4.4,14.8h.8c0,0,.8,0,.8,0,3.6,0,7-.8,10.1-2.3,3.1-1.6,5.5-3.9,7-6.9,1-1.9,1.5-3.9,1.7-5.9Z"/>
  <polygon id="l_x5F_white" class="st1" points="156.9 324.5 137.5 324.4 137.6 278.3 120.7 278.3 120.6 337.2 156.9 337.3 156.9 324.5"/>
  <polygon id="k_x5F_white" class="st1" points="87.4 308.2 99.6 337.2 118.6 337.2 103.6 304.5 118.7 278.3 99.7 278.2 87.4 302.3 87.5 278.2 70.6 278.2 70.5 337.1 87.4 337.2 87.4 308.2"/>
  <path id="Symbol" class="st1" d="M283.8,224.5c-5.3,45.1-25.2,103.9-64,132.6,107.8,9.5,143.8-50.6,170.7-119.5.2-.6,0-.9-.8-1h-67.6c-2-.2-2.4-2-2.4-2.6v-20.5c31.4-11.2,60.7-26.3,85.9-45.9-3.3-17.7-8.8-34.6-16.4-50.4-16.2,11.5-38.5,31.9-69.4,51.7v-9.6c0-1.1-.9-1.9-1.9-1.9h-30.6c-1.1,0-1.9.8-1.9,1.8v29.2c-32.9,16.2-73.2,29.3-122.4,32.5l.2-87.8c15.3,0,30.7.1,46,.1s3.9-1.8,3.9-4l-.2-34.2c0-2.2-1.8-4-4-4-15.2,0-30.4-.1-45.6-.1v-34.4c.1-2.2-1.7-4-3.9-4h-34.4c-2.2,0-4,1.8-4,4v34.4c-15.2,0-30.4,0-45.6,0s-4,1.8-4,4l-.4,34.3c0,2.2,1.7,4,3.9,4,15.3,0,30.7.1,46,.1l-.2,88.2c-35.6-1.7-75.3-8.4-119.6-22.1-.1,2-.2,4-.2,6s0,2.4,0,3.6c40.3,30,168.4,45.2,282.8,15.6Z"/>
  <path class="st0" d="M477.1,289.7h-5.3v-41.5h5.3v41.5ZM484.6,289.7l-7.4-21,5.9-20.4h5.5l-6.5,19.7,8.1,21.7h-5.5ZM491.7,283.5h0c0-1.3.3-2.5.9-3.6h0c.6-1.1,1.4-2,2.3-2.8h0c.9-.8,2-1.6,3.3-2.4h0c1.3-.8,2.6-1.6,4-2.5h0v-2.6h0c0-2.4-.9-3.6-2.8-3.6h0c-2,0-4.3,1.5-7,4.5h0v-5.6h0c1.4-1.3,2.7-2.3,3.7-2.8h0c1.1-.5,2.3-.8,3.6-.8h0c2.7,0,4.6.8,5.7,2.5h0c1,1.7,1.6,3.4,1.6,5.2h0v15h0c0,1.2.2,1.7.7,1.7h0c.3,0,1-.5,1.9-1.4h0v3.7h0c-1.6,1.4-2.9,2-3.7,2h0c-1.8,0-3-1.1-3.6-3.4h0c-1.7,2.4-3.5,3.6-5.3,3.6h0c-1.4,0-2.7-.7-3.7-2.1h0c-1.1-1.4-1.6-3-1.6-4.9ZM496.6,282.8h0c0,.9.2,1.6.7,2.2h0c.5.6,1,.9,1.7.9h0c.5,0,1.1-.3,1.7-.9h0c.6-.6,1.1-1.4,1.6-2.4h0v-7.1h0c-2,1.2-3.5,2.4-4.4,3.6h0c-.9,1.1-1.4,2.4-1.4,3.7ZM514.5,266.4h-3.2l8.1-11.5v7.3h4.5v4.2h-4.5v15.7h0c0,1.5.1,2.4.4,2.9h0c.2.5.8.7,1.6.7h0c.7,0,1.5-.2,2.6-.7h0v4.3h0c-1.7.7-3.1,1-4.3,1h0c-1.3,0-2.4-.2-3.1-.7h0c-.7-.5-1.3-1.3-1.6-2.4h0c-.3-1.1-.4-2.8-.4-4.9h0v-16ZM532.5,289.7h-4.8v-41.5h4.8v16.7h.1c.8-1.3,1.5-2.2,2.3-2.7h0c.8-.5,1.7-.8,2.9-.8h0c2.3,0,3.8.9,4.7,2.7h0c.9,1.8,1.3,3.8,1.3,6.1h0v19.5h-4.9v-17.8h0c0-1.8,0-3.1-.2-3.9h0c-.1-.8-.4-1.4-.7-1.7h0c-.3-.3-.9-.4-1.6-.4h0c-1.5,0-2.8,1.1-3.9,3.2h0v20.7ZM548.6,276.2h0c0-3.1.3-5.7,1-7.9h0c.7-2.2,1.7-3.9,3-5.1h0c1.3-1.2,2.8-1.8,4.6-1.8h0c1.8,0,3.3.6,4.6,1.8h0c1.3,1.2,2.3,2.9,3,5.1h0c.7,2.2,1,4.9,1,8h0c0,2.8-.4,5.3-1.1,7.4h0c-.7,2.2-1.7,3.8-3,5h0c-1.3,1.2-2.8,1.8-4.5,1.8h0c-1.7,0-3.3-.6-4.5-1.8h0c-1.3-1.2-2.3-2.8-3-5h0c-.7-2.2-1.1-4.6-1.1-7.4ZM553.6,276.3h0c0,2.9.3,5.2,1,6.9h0c.6,1.7,1.5,2.5,2.7,2.5h0c1.1,0,2-.8,2.7-2.5h0c.7-1.7,1-4,1-6.9h0c0-6.8-1.2-10.1-3.7-10.1h0c-2.4,0-3.6,3.4-3.6,10.1ZM575.7,289.7h-4.8v-41.5h4.8v41.5ZM582.4,252.4h0c-.6-.5-.9-1.2-.9-2h0c0-.8.3-1.4.8-2h0c.5-.5,1.2-.8,2-.8h0c.8,0,1.5.3,2,.8h0c.5.5.8,1.2.8,2h0c0,.8-.3,1.4-.9,2h0c-.6.5-1.2.8-2,.8h0c-.7,0-1.4-.3-1.9-.8ZM586.7,289.7h-4.8v-27.5h4.8v27.5ZM591.6,288.2h0v-5.4h0c1.9,2,3.4,3.1,4.8,3.1h0c.7,0,1.3-.2,1.7-.7h0c.5-.5.7-1,.7-1.7h0c0-.8-.2-1.7-.7-2.5h0c-.5-.8-1.3-2.2-2.6-4.1h0c-1.2-1.9-2.1-3.5-2.7-4.8h0c-.6-1.3-.9-2.6-.9-3.9h0c0-2,.5-3.6,1.6-4.8h0c1.1-1.2,2.5-1.9,4.3-1.9h0c1.5,0,3,.6,4.5,1.8h0v4.6h0c-1.5-1.3-2.9-1.9-4.1-1.9h0c-.6,0-1.1.2-1.4.5h0c-.4.4-.5.9-.5,1.5h0c0,1,.9,2.7,2.6,5.3h0c1.7,2.5,3,4.4,3.6,5.6h0c.7,1.2,1,2.7,1,4.5h0c0,2.1-.6,3.8-1.9,5.1h0c-1.2,1.3-2.8,2-4.6,2h0c-1.8,0-3.6-.7-5.5-2.2ZM607.2,276.1h0c0-2.8.4-5.3,1.2-7.6h0c.8-2.3,2-4,3.5-5.3h0c1.5-1.3,3.2-1.9,5.1-1.9h0c1.4,0,2.8.3,4.4,1h0v5h0c-1.4-.9-2.6-1.3-3.6-1.3h0c-1.7,0-3.1.9-4.1,2.7h0c-1,1.8-1.5,4.2-1.5,7.3h0c0,3,.5,5.3,1.6,7.1h0c1.1,1.7,2.6,2.6,4.4,2.6h0c.7,0,1.2,0,1.7-.3h0c.5-.2,1.1-.6,1.9-1.1h0v4.7h0c-1.6,1-3.2,1.4-4.8,1.4h0c-1.9,0-3.5-.6-5.1-1.8h0c-1.5-1.2-2.7-2.9-3.5-5.1h0c-.8-2.2-1.3-4.6-1.3-7.3ZM630.5,289.7h-4.9v-41.5h4.9v16.7h.1c.7-1.3,1.5-2.2,2.3-2.7h0c.8-.5,1.7-.8,2.9-.8h0c2.3,0,3.8.9,4.7,2.7h0c.9,1.8,1.3,3.8,1.3,6.1h0v19.5h-4.8v-17.8h0c0-1.8,0-3.1-.2-3.9h0c-.1-.8-.4-1.4-.7-1.7h0c-.3-.3-.9-.4-1.6-.4h0c-1.5,0-2.8,1.1-3.9,3.2h0v20.7ZM646.5,275.8h0c0-4.5.7-8.1,2-10.6h0c1.4-2.5,3.2-3.8,5.7-3.8h0c1.7,0,3.1.6,4.1,1.7h0c1,1.1,1.8,2.5,2.2,4.2h0c.5,1.7.7,3.3.8,4.8h0c.1,1.5.2,3.2.2,4.9h-10.2c0,3,.5,5.3,1.3,6.8h0c.8,1.5,2.1,2.2,3.8,2.2h0c1.6,0,3.1-.9,4.5-2.6h0v4.6h0c-1.9,1.6-3.8,2.4-5.7,2.4h0c-1.8,0-3.4-.6-4.7-1.7h0c-1.3-1.2-2.3-2.8-3-5h0c-.7-2.2-1-4.8-1-7.8ZM651.4,273.4h5.4c0-2.7-.2-4.7-.7-6h0c-.4-1.2-1.2-1.8-2.2-1.8h0c-1.6,0-2.5,2.6-2.5,7.8Z"/>
  <path class="st0" d="M487.2,350.7h-15.5v-41.5h5.3v36.6h10.2v4.9ZM489.2,344.5h0c0-1.3.3-2.5.9-3.6h0c.6-1.1,1.4-2,2.3-2.8h0c.9-.8,2-1.6,3.3-2.4h0c1.3-.8,2.6-1.6,4-2.5h0v-2.6h0c0-2.4-1-3.6-2.8-3.6h0c-2,0-4.3,1.5-7,4.5h0v-5.6h0c1.4-1.3,2.7-2.3,3.7-2.8h0c1.1-.5,2.3-.8,3.7-.8h0c2.7,0,4.6.8,5.7,2.5h0c1,1.7,1.6,3.4,1.6,5.2h0v15h0c0,1.2.2,1.7.7,1.7h0c.3,0,.9-.5,1.9-1.4h0v3.7h0c-1.6,1.4-2.9,2-3.8,2h0c-1.8,0-3-1.1-3.6-3.4h0c-1.7,2.4-3.5,3.6-5.3,3.6h0c-1.4,0-2.7-.7-3.7-2.1h0c-1.1-1.4-1.6-3-1.6-4.9ZM494,343.8h0c0,.9.2,1.6.7,2.2h0c.5.6,1.1.9,1.7.9h0c.5,0,1.1-.3,1.7-.9h0c.6-.6,1.1-1.4,1.6-2.4h0v-7.1h0c-2,1.2-3.5,2.4-4.4,3.6h0c-.9,1.1-1.4,2.4-1.4,3.7ZM515.7,350.7h-4.8v-27.5h4.8v3.2h0c1.4-2.4,3.2-3.6,5.3-3.6h0c2.3,0,3.9.9,4.7,2.7h0c.8,1.8,1.2,3.6,1.2,5.4h0v19.8h-4.8v-17.5h0c0-1.8,0-3.1-.2-3.9h0c-.1-.9-.4-1.4-.7-1.8h0c-.4-.3-.9-.5-1.6-.5h0c-1.5,0-2.7,1.1-3.9,3.3h0v20.4ZM531.8,337.3h0c0-2.9.3-5.5,1-7.8h0c.7-2.3,1.6-4,2.8-5.3h0c1.2-1.3,2.6-1.9,4.2-1.9h0c1.7,0,3.2.7,4.4,2.2h0v-15.5h4.8v41.5h-4.8v-2.1h-.1c-1.3,1.7-2.8,2.5-4.5,2.5h0c-1.5,0-2.8-.6-4-1.8h0c-1.2-1.2-2.1-2.8-2.8-4.9h0c-.7-2.1-1-4.5-1-7.1ZM536.7,337.1h0c0,3,.3,5.3,1,6.9h0c.7,1.6,1.7,2.4,2.9,2.4h0c1.3,0,2.5-.9,3.4-2.6h0v-14.1h0c-.7-1.8-1.8-2.7-3.2-2.7h0c-1.3,0-2.4.9-3.1,2.7h0c-.7,1.8-1.1,4.3-1.1,7.5ZM551.4,365.5v-4.7h0c1.2-.2,2-.8,2.4-1.6h0c.4-.8.6-2.3.6-4.5h0v-31.6h4.8v30.7h0c0,3.2-.5,5.8-1.5,7.9h0c-1,2.1-3.1,3.4-6.4,3.7h0ZM554.7,313.4h0c-.6-.5-.8-1.2-.8-2h0c0-.8.3-1.4.8-2h0c.5-.5,1.2-.8,2-.8h0c.8,0,1.5.3,2,.8h0c.5.5.8,1.2.8,2h0c0,.8-.3,1.5-.8,2h0c-.5.5-1.2.8-2,.8h0c-.8,0-1.4-.3-2-.8ZM564.8,343h0v-19.8h4.8v17.5h0c0,1.8,0,3.1.2,3.9h0c.1.9.4,1.4.7,1.8h0c.4.3.9.5,1.6.5h0c1.5,0,2.8-1.1,3.9-3.3h0v-20.4h4.8v27.5h-4.8v-3h-.2c-.8,1.3-1.5,2.2-2.2,2.7h0c-.7.5-1.6.7-2.7.7h0c-2.5,0-4.1-.9-5-2.6h0c-.8-1.7-1.3-3.6-1.3-5.5ZM586,362.2h0c-.8-1.2-1.2-2.5-1.2-4h0c0-1.5.4-2.8,1.2-4h0c.8-1.2,2-2.1,3.5-2.7h0c-2.1-1-3.1-2.3-3.1-3.9h0c0-2,1.3-3.5,3.8-4.5h0c-2.8-2-4.2-5.2-4.2-9.4h0c0-3.1.7-5.6,2-7.6h0c1.4-2,3.6-2.9,6.6-2.9h8.8v4.2h-3.7c1.1,1.7,1.6,3.9,1.6,6.5h0c0,3.4-.7,5.9-2.1,7.4h0c-1.4,1.6-2.9,2.5-4.7,2.8h0c-1.3.2-2.2.4-2.8.7h0c-.5.3-.8.7-.8,1.5h0c0,.6.1,1,.4,1.3h0c.3.3.7.5,1.2.7h0c.5.1,1.9.5,4.1,1h0c1.7.4,3.3,1.2,4.6,2.5h0c1.3,1.3,2,3.1,2,5.4h0c0,1.7-.4,3.2-1.2,4.5h0c-.8,1.3-1.9,2.4-3.3,3.1h0c-1.4.7-3,1.1-4.7,1.1h0c-1.8,0-3.4-.3-4.9-1h0c-1.4-.6-2.6-1.6-3.4-2.7ZM589.2,357.7h0c0,1.2.5,2.2,1.4,3h0c.9.7,2.1,1.1,3.7,1.1h0c1.4,0,2.5-.4,3.5-1.2h0c.9-.8,1.4-1.8,1.4-3h0c0-1.2-.5-2.2-1.5-3h0c-1-.8-2.3-1.2-3.7-1.2h0c-1.4,0-2.5.4-3.4,1.2h0c-.9.8-1.3,1.9-1.3,3.2ZM590.5,333.7h0c0,2.1.3,3.8.9,5h0c.6,1.2,1.4,1.8,2.5,1.8h0c1,0,1.7-.6,2.3-1.8h0c.6-1.2.9-2.7.9-4.6h0c0-2.2-.3-4-.9-5.3h0c-.6-1.3-1.3-1.9-2.3-1.9h0c-1.1,0-1.9.6-2.5,1.8h0c-.6,1.2-.9,2.9-.9,5.1ZM606.2,336.8h0c0-4.5.7-8.1,2-10.6h0c1.4-2.5,3.2-3.8,5.7-3.8h0c1.7,0,3.1.6,4.1,1.7h0c1,1.1,1.8,2.5,2.2,4.2h0c.5,1.7.7,3.3.8,4.8h0c.1,1.5.2,3.2.2,4.9h-10.2c0,3,.5,5.3,1.3,6.8h0c.8,1.5,2.1,2.2,3.8,2.2h0c1.6,0,3.1-.9,4.5-2.6h0v4.6h0c-1.9,1.6-3.8,2.4-5.7,2.4h0c-1.8,0-3.4-.6-4.7-1.7h0c-1.3-1.2-2.3-2.8-3-5h0c-.7-2.2-1-4.8-1-7.8ZM611,334.4h5.4c0-2.7-.2-4.7-.7-6h0c-.4-1.2-1.2-1.8-2.2-1.8h0c-1.6,0-2.5,2.6-2.5,7.8ZM631.4,350.7h-4.9v-27.5h4.9v3.2h0c1.4-2.4,3.2-3.6,5.3-3.6h0c2.3,0,3.9.9,4.7,2.7h0c.8,1.8,1.2,3.6,1.2,5.4h0v19.8h-4.9v-17.5h0c0-1.8,0-3.1-.2-3.9h0c-.1-.9-.4-1.4-.7-1.8h0c-.4-.3-.9-.5-1.7-.5h0c-1.5,0-2.7,1.1-3.8,3.3h0v20.4ZM647.5,337.3h0c0-2.9.3-5.5,1-7.8h0c.7-2.3,1.6-4,2.8-5.3h0c1.2-1.3,2.6-1.9,4.2-1.9h0c1.7,0,3.2.7,4.4,2.2h0v-15.5h4.8v41.5h-4.8v-2.1h-.1c-1.3,1.7-2.8,2.5-4.5,2.5h0c-1.5,0-2.8-.6-4-1.8h0c-1.2-1.2-2.1-2.8-2.8-4.9h0c-.7-2.1-1-4.5-1-7.1ZM652.5,337.1h0c0,3,.3,5.3,1,6.9h0c.7,1.6,1.7,2.4,2.9,2.4h0c1.3,0,2.5-.9,3.4-2.6h0v-14.1h0c-.7-1.8-1.8-2.7-3.2-2.7h0c-1.3,0-2.4.9-3.1,2.7h0c-.7,1.8-1.1,4.3-1.1,7.5ZM675.2,350.7h-4.9v-41.5h4.9v15.4h0c1.3-1.5,2.7-2.2,4.4-2.2h0c1.6,0,3,.6,4.2,1.8h0c1.2,1.2,2.1,2.8,2.7,5h0c.6,2.2,1,4.7,1,7.7h0c0,2.9-.3,5.4-1,7.5h0c-.7,2.2-1.6,3.8-2.8,5h0c-1.2,1.2-2.6,1.7-4.2,1.7h0c-1.6,0-3-.7-4.3-2h0v1.6ZM675.2,329.6v14.2h0c.8,1.8,1.9,2.7,3.2,2.7h0c1.3,0,2.3-.8,3-2.5h0c.7-1.6,1.1-4,1.1-7.1h0c0-3.2-.4-5.7-1.1-7.4h0c-.8-1.7-1.8-2.6-3.2-2.6h0c-1.2,0-2.2.9-3,2.7h0ZM691.6,336.8h0c0-4.5.7-8.1,2-10.6h0c1.4-2.5,3.2-3.8,5.7-3.8h0c1.7,0,3.1.6,4.1,1.7h0c1,1.1,1.8,2.5,2.2,4.2h0c.5,1.7.7,3.3.8,4.8h0c0,1.5.1,3.2.1,4.9h-10.1c0,3,.5,5.3,1.3,6.8h0c.8,1.5,2.1,2.2,3.8,2.2h0c1.6,0,3.1-.9,4.5-2.6h0v4.6h0c-1.9,1.6-3.8,2.4-5.7,2.4h0c-1.8,0-3.4-.6-4.7-1.7h0c-1.3-1.2-2.3-2.8-3-5h0c-.7-2.2-1-4.8-1-7.8ZM696.4,334.4h5.4c0-2.7-.2-4.7-.7-6h0c-.4-1.2-1.2-1.8-2.2-1.8h0c-1.6,0-2.5,2.6-2.5,7.8ZM716.6,351.3l-7.5-28.1h4.9l3.5,14.8h.1l4.2-14.8h1.8l4.1,14.8h.1l3.5-14.8h4.9l-7.4,28.1h-1.5l-4.7-16.5h-.1l-4.6,16.5h-1.4ZM738.8,336.8h0c0-4.5.7-8.1,2-10.6h0c1.4-2.5,3.2-3.8,5.7-3.8h0c1.7,0,3.1.6,4.1,1.7h0c1,1.1,1.8,2.5,2.2,4.2h0c.5,1.7.7,3.3.8,4.8h0c.1,1.5.2,3.2.2,4.9h-10.2c0,3,.5,5.3,1.3,6.8h0c.8,1.5,2.1,2.2,3.8,2.2h0c1.6,0,3.1-.9,4.5-2.6h0v4.6h0c-1.9,1.6-3.8,2.4-5.7,2.4h0c-1.8,0-3.4-.6-4.7-1.7h0c-1.3-1.2-2.3-2.8-3-5h0c-.7-2.2-1-4.8-1-7.8ZM743.6,334.4h5.4c0-2.7-.2-4.7-.7-6h0c-.4-1.2-1.2-1.8-2.2-1.8h0c-1.6,0-2.5,2.6-2.5,7.8ZM758.1,362.2h0c-.8-1.2-1.2-2.5-1.2-4h0c0-1.5.4-2.8,1.2-4h0c.8-1.2,2-2.1,3.5-2.7h0c-2.1-1-3.1-2.3-3.1-3.9h0c0-2,1.3-3.5,3.8-4.5h0c-2.8-2-4.2-5.2-4.2-9.4h0c0-3.1.7-5.6,2-7.6h0c1.4-2,3.6-2.9,6.6-2.9h8.8v4.2h-3.7c1,1.7,1.6,3.9,1.6,6.5h0c0,3.4-.7,5.9-2.1,7.4h0c-1.4,1.6-2.9,2.5-4.7,2.8h0c-1.3.2-2.2.4-2.8.7h0c-.5.3-.8.7-.8,1.5h0c0,.6.1,1,.4,1.3h0c.3.3.7.5,1.2.7h0c.5.1,1.9.5,4.1,1h0c1.7.4,3.3,1.2,4.6,2.5h0c1.3,1.3,2,3.1,2,5.4h0c0,1.7-.4,3.2-1.2,4.5h0c-.8,1.3-1.9,2.4-3.3,3.1h0c-1.4.7-3,1.1-4.7,1.1h0c-1.8,0-3.4-.3-4.9-1h0c-1.4-.6-2.6-1.6-3.4-2.7ZM761.3,357.7h0c0,1.2.5,2.2,1.4,3h0c.9.7,2.1,1.1,3.7,1.1h0c1.4,0,2.5-.4,3.4-1.2h0c.9-.8,1.4-1.8,1.4-3h0c0-1.2-.5-2.2-1.5-3h0c-1-.8-2.3-1.2-3.7-1.2h0c-1.4,0-2.5.4-3.4,1.2h0c-.9.8-1.3,1.9-1.3,3.2ZM762.6,333.7h0c0,2.1.3,3.8.9,5h0c.6,1.2,1.4,1.8,2.5,1.8h0c1,0,1.7-.6,2.3-1.8h0c.6-1.2.9-2.7.9-4.6h0c0-2.2-.3-4-.9-5.3h0c-.6-1.3-1.3-1.9-2.3-1.9h0c-1.1,0-1.9.6-2.5,1.8h0c-.6,1.2-.9,2.9-.9,5.1ZM778.9,343h0v-19.8h4.9v17.5h0c0,1.8,0,3.1.2,3.9h0c.1.9.4,1.4.7,1.8h0c.4.3.9.5,1.6.5h0c1.5,0,2.8-1.1,3.9-3.3h0v-20.4h4.8v27.5h-4.8v-3h-.1c-.8,1.3-1.5,2.2-2.2,2.7h0c-.7.5-1.6.7-2.7.7h0c-2.5,0-4.1-.9-5-2.6h0c-.8-1.7-1.3-3.6-1.3-5.5ZM806.1,350.7h-4.9v-27.5h4.9v3.2h0c1.4-2.4,3.2-3.6,5.3-3.6h0c2.3,0,3.9.9,4.7,2.7h0c.8,1.8,1.2,3.6,1.2,5.4h0v19.8h-4.9v-17.5h0c0-1.8,0-3.1-.2-3.9h0c-.1-.9-.4-1.4-.7-1.8h0c-.4-.3-.9-.5-1.7-.5h0c-1.5,0-2.7,1.1-3.8,3.3h0v20.4ZM822.1,362.2h0c-.8-1.2-1.2-2.5-1.2-4h0c0-1.5.4-2.8,1.2-4h0c.8-1.2,2-2.1,3.5-2.7h0c-2.1-1-3.1-2.3-3.1-3.9h0c0-2,1.3-3.5,3.8-4.5h0c-2.8-2-4.2-5.2-4.2-9.4h0c0-3.1.7-5.6,2-7.6h0c1.4-2,3.6-2.9,6.6-2.9h8.8v4.2h-3.7c1.1,1.7,1.6,3.9,1.6,6.5h0c0,3.4-.7,5.9-2.1,7.4h0c-1.4,1.6-2.9,2.5-4.7,2.8h0c-1.3.2-2.2.4-2.8.7h0c-.5.3-.8.7-.8,1.5h0c0,.6.1,1,.4,1.3h0c.3.3.7.5,1.2.7h0c.5.1,1.9.5,4.1,1h0c1.7.4,3.3,1.2,4.6,2.5h0c1.3,1.3,2,3.1,2,5.4h0c0,1.7-.4,3.2-1.2,4.5h0c-.8,1.3-1.9,2.4-3.3,3.1h0c-1.4.7-3,1.1-4.7,1.1h0c-1.8,0-3.4-.3-4.9-1h0c-1.4-.6-2.6-1.6-3.4-2.7ZM825.3,357.7h0c0,1.2.5,2.2,1.4,3h0c.9.7,2.1,1.1,3.6,1.1h0c1.4,0,2.5-.4,3.4-1.2h0c.9-.8,1.4-1.8,1.4-3h0c0-1.2-.5-2.2-1.5-3h0c-1-.8-2.3-1.2-3.7-1.2h0c-1.4,0-2.5.4-3.4,1.2h0c-.8.8-1.3,1.9-1.3,3.2ZM826.5,333.7h0c0,2.1.3,3.8.9,5h0c.6,1.2,1.4,1.8,2.5,1.8h0c1,0,1.7-.6,2.3-1.8h0c.6-1.2.8-2.7.8-4.6h0c0-2.2-.3-4-.8-5.3h0c-.6-1.3-1.3-1.9-2.3-1.9h0c-1.1,0-1.9.6-2.5,1.8h0c-.6,1.2-.9,2.9-.9,5.1Z"/>
  <path class="st0" d="M477.3,410.7h-5.7v-41.5h5c3.1,0,5.6.5,7.6,1.5h0c2,1,3.6,2.4,4.7,4.2h0c1.1,1.8,1.8,4,2.3,6.4h0c.4,2.4.6,5.2.6,8.4h0c0,3.8-.4,7.2-1.2,10.3h0c-.8,3.1-2.2,5.6-4.4,7.6h0c-2.1,2-5.1,3-8.9,3h0ZM476.9,374.2v31.5h0c2.5,0,4.4-.6,5.7-1.7h0c1.3-1.1,2.3-2.8,2.8-5.1h0c.5-2.3.8-5.4.8-9.3h0c0-4-.3-7.2-.8-9.4h0c-.6-2.2-1.5-3.8-2.8-4.7h0c-1.3-.9-3.2-1.3-5.6-1.3h0ZM496,396.8h0c0-4.5.7-8.1,2-10.6h0c1.4-2.5,3.2-3.8,5.7-3.8h0c1.7,0,3.1.6,4.1,1.7h0c1,1.1,1.8,2.5,2.2,4.2h0c.5,1.7.7,3.3.8,4.8h0c.1,1.5.2,3.2.2,4.9h-10.2c0,3,.5,5.3,1.3,6.8h0c.8,1.5,2.1,2.2,3.8,2.2h0c1.6,0,3.1-.9,4.4-2.6h0v4.6h0c-1.9,1.6-3.8,2.4-5.7,2.4h0c-1.8,0-3.4-.6-4.7-1.7h0c-1.3-1.2-2.3-2.8-3-5h0c-.7-2.2-1-4.8-1-7.8ZM500.8,394.4h5.4c0-2.7-.2-4.7-.7-6h0c-.4-1.2-1.2-1.8-2.2-1.8h0c-1.6,0-2.5,2.6-2.5,7.8ZM516,403h0v-19.8h4.9v17.5h0c0,1.8,0,3.1.2,3.9h0c.1.9.4,1.4.7,1.8h0c.4.3.9.5,1.7.5h0c1.5,0,2.8-1.1,3.9-3.3h0v-20.4h4.8v27.5h-4.8v-3h-.2c-.8,1.3-1.5,2.2-2.2,2.7h0c-.7.5-1.6.7-2.7.7h0c-2.5,0-4.1-.9-5-2.6h0c-.8-1.7-1.3-3.6-1.3-5.5ZM539.5,387.4h-3.2l8.1-11.5v7.3h4.5v4.2h-4.5v15.7h0c0,1.5.1,2.4.4,2.9h0c.2.5.8.8,1.6.8h0c.7,0,1.5-.2,2.5-.7h0v4.3h0c-1.7.7-3.1,1-4.3,1h0c-1.3,0-2.4-.2-3.1-.7h0c-.7-.5-1.3-1.3-1.5-2.4h0c-.3-1.1-.4-2.8-.4-4.9h0v-16ZM551.3,409.2h0v-5.4h0c1.9,2,3.4,3.1,4.8,3.1h0c.7,0,1.3-.2,1.7-.7h0c.5-.5.7-1,.7-1.7h0c0-.8-.2-1.7-.7-2.5h0c-.5-.8-1.3-2.2-2.6-4.1h0c-1.2-1.9-2.1-3.5-2.7-4.8h0c-.6-1.3-.9-2.6-.9-3.9h0c0-2,.5-3.6,1.6-4.8h0c1.1-1.2,2.5-1.9,4.3-1.9h0c1.5,0,3,.6,4.5,1.8h0v4.6h0c-1.5-1.3-2.9-1.9-4.1-1.9h0c-.6,0-1.1.2-1.4.5h0c-.4.4-.5.9-.5,1.5h0c0,1,.9,2.7,2.6,5.3h0c1.7,2.5,3,4.4,3.6,5.6h0c.7,1.2,1,2.7,1,4.5h0c0,2.1-.6,3.8-1.9,5.1h0c-1.2,1.3-2.8,2-4.6,2h0c-1.8,0-3.6-.7-5.5-2.2ZM566.9,397.1h0c0-2.8.4-5.3,1.2-7.6h0c.8-2.3,2-4,3.5-5.3h0c1.5-1.3,3.2-1.9,5.1-1.9h0c1.4,0,2.8.3,4.4,1h0v5h0c-1.4-.9-2.6-1.3-3.6-1.3h0c-1.7,0-3.1.9-4.1,2.7h0c-1,1.8-1.5,4.2-1.5,7.3h0c0,3,.5,5.3,1.6,7.1h0c1.1,1.7,2.6,2.6,4.4,2.6h0c.7,0,1.2,0,1.7-.3h0c.5-.2,1.1-.6,1.9-1.1h0v4.7h0c-1.6,1-3.2,1.4-4.8,1.4h0c-1.9,0-3.5-.6-5.1-1.8h0c-1.5-1.2-2.7-2.9-3.5-5.1h0c-.8-2.2-1.3-4.6-1.3-7.3ZM590.2,410.7h-4.9v-41.5h4.9v16.7h.1c.8-1.3,1.5-2.2,2.3-2.7h0c.8-.5,1.7-.8,2.9-.8h0c2.3,0,3.8.9,4.7,2.7h0c.9,1.8,1.3,3.8,1.3,6.1h0v19.5h-4.8v-17.8h0c0-1.8,0-3.1-.2-3.9h0c-.1-.8-.4-1.4-.7-1.7h0c-.3-.3-.9-.4-1.6-.4h0c-1.5,0-2.8,1.1-3.9,3.2h0v20.7ZM612,410.7h-4.8v-41.5h4.8v41.5ZM616.9,404.5h0c0-1.3.3-2.5.9-3.6h0c.6-1.1,1.3-2,2.3-2.8h0c.9-.8,2-1.6,3.3-2.4h0c1.3-.8,2.6-1.6,4-2.5h0v-2.6h0c0-2.4-1-3.6-2.9-3.6h0c-2,0-4.3,1.5-7,4.5h0v-5.6h0c1.4-1.3,2.7-2.3,3.7-2.8h0c1.1-.5,2.3-.8,3.6-.8h0c2.8,0,4.7.8,5.7,2.5h0c1,1.7,1.6,3.4,1.6,5.2h0v15h0c0,1.2.2,1.7.7,1.7h0c.3,0,.9-.5,1.9-1.4h0v3.7h0c-1.6,1.4-2.9,2-3.8,2h0c-1.8,0-3-1.1-3.6-3.4h0c-1.7,2.4-3.5,3.6-5.3,3.6h0c-1.4,0-2.7-.7-3.7-2.1h0c-1.1-1.4-1.6-3-1.6-4.9ZM621.7,403.8h0c0,.9.2,1.6.7,2.2h0c.5.6,1.1.9,1.7.9h0c.5,0,1.1-.3,1.7-.9h0c.6-.6,1.1-1.4,1.6-2.4h0v-7.1h0c-2,1.2-3.5,2.4-4.4,3.6h0c-.9,1.1-1.4,2.4-1.4,3.7ZM643.4,410.7h-4.9v-27.5h4.9v3.2h0c1.4-2.4,3.2-3.6,5.3-3.6h0c2.3,0,3.9.9,4.7,2.7h0c.8,1.8,1.2,3.6,1.2,5.4h0v19.8h-4.9v-17.5h0c0-1.8,0-3.1-.2-3.9h0c-.1-.9-.4-1.4-.7-1.8h0c-.4-.3-.9-.5-1.7-.5h0c-1.5,0-2.7,1.1-3.8,3.3h0v20.4ZM659.4,397.3h0c0-2.9.3-5.5,1-7.8h0c.7-2.3,1.6-4,2.8-5.3h0c1.2-1.3,2.6-1.9,4.2-1.9h0c1.7,0,3.2.7,4.4,2.2h0v-15.5h4.8v41.5h-4.8v-2.1h-.1c-1.3,1.7-2.8,2.5-4.5,2.5h0c-1.5,0-2.8-.6-4-1.8h0c-1.2-1.2-2.1-2.8-2.8-4.9h0c-.7-2.1-1-4.5-1-7.1ZM664.4,397.1h0c0,3,.3,5.3,1,6.9h0c.7,1.6,1.7,2.4,2.9,2.4h0c1.3,0,2.5-.9,3.4-2.6h0v-14.1h0c-.7-1.8-1.8-2.7-3.2-2.7h0c-1.3,0-2.4.9-3.1,2.7h0c-.7,1.8-1.1,4.3-1.1,7.5ZM681.2,409.2h0v-5.4h0c1.9,2,3.4,3.1,4.8,3.1h0c.7,0,1.3-.2,1.7-.7h0c.5-.5.7-1,.7-1.7h0c0-.8-.2-1.7-.7-2.5h0c-.5-.8-1.3-2.2-2.6-4.1h0c-1.2-1.9-2.1-3.5-2.7-4.8h0c-.6-1.3-.9-2.6-.9-3.9h0c0-2,.5-3.6,1.6-4.8h0c1.1-1.2,2.5-1.9,4.3-1.9h0c1.5,0,3,.6,4.5,1.8h0v4.6h0c-1.5-1.3-2.9-1.9-4.1-1.9h0c-.6,0-1.1.2-1.4.5h0c-.4.4-.5.9-.5,1.5h0c0,1,.9,2.7,2.6,5.3h0c1.7,2.5,2.9,4.4,3.6,5.6h0c.7,1.2,1,2.7,1,4.5h0c0,2.1-.6,3.8-1.8,5.1h0c-1.2,1.3-2.8,2-4.6,2h0c-1.8,0-3.6-.7-5.5-2.2ZM0,0"/>
</svg>